<mxfile host="app.diagrams.net" modified="2024-03-28T17:20:07.563Z" agent="Mozilla/5.0 (Macintosh; Intel Mac OS X 10_15_7) AppleWebKit/605.1.15 (KHTML, like Gecko) Version/16.3 Safari/605.1.15" etag="9OBMhNjJVRoWamOH7Iqf" version="24.2.1" type="device">
  <diagram id="C5RBs43oDa-KdzZeNtuy" name="Page-1">
    <mxGraphModel dx="2190" dy="890" grid="1" gridSize="10" guides="1" tooltips="1" connect="1" arrows="1" fold="1" page="1" pageScale="1" pageWidth="827" pageHeight="1169" math="0" shadow="0">
      <root>
        <mxCell id="WIyWlLk6GJQsqaUBKTNV-0" />
        <mxCell id="WIyWlLk6GJQsqaUBKTNV-1" parent="WIyWlLk6GJQsqaUBKTNV-0" />
        <mxCell id="IJf_oxvMi_yI0q4zsniB-27" value="Passengers" style="text;strokeColor=none;fillColor=none;html=1;fontSize=24;fontStyle=1;verticalAlign=middle;align=center;" parent="WIyWlLk6GJQsqaUBKTNV-1" vertex="1">
          <mxGeometry x="140" y="420" width="100" height="40" as="geometry" />
        </mxCell>
        <mxCell id="IJf_oxvMi_yI0q4zsniB-41" value="" style="shape=table;html=1;whiteSpace=wrap;startSize=0;container=1;collapsible=0;childLayout=tableLayout;columnLines=0;rowLines=0;fontSize=16;strokeColor=default;" parent="WIyWlLk6GJQsqaUBKTNV-1" vertex="1">
          <mxGeometry x="140" y="460" width="180" height="40" as="geometry" />
        </mxCell>
        <mxCell id="IJf_oxvMi_yI0q4zsniB-42" value="" style="shape=tableRow;horizontal=0;startSize=0;swimlaneHead=0;swimlaneBody=0;top=0;left=0;bottom=0;right=0;collapsible=0;dropTarget=0;fillColor=none;points=[[0,0.5],[1,0.5]];portConstraint=eastwest;fontSize=16;strokeColor=inherit;" parent="IJf_oxvMi_yI0q4zsniB-41" vertex="1">
          <mxGeometry width="180" height="40" as="geometry" />
        </mxCell>
        <mxCell id="IJf_oxvMi_yI0q4zsniB-43" value="&lt;u&gt;DOB&lt;/u&gt;" style="shape=partialRectangle;html=1;whiteSpace=wrap;connectable=0;fillColor=none;top=0;left=0;bottom=0;right=0;overflow=hidden;fontSize=12;strokeColor=inherit;" parent="IJf_oxvMi_yI0q4zsniB-42" vertex="1">
          <mxGeometry width="60" height="40" as="geometry">
            <mxRectangle width="60" height="40" as="alternateBounds" />
          </mxGeometry>
        </mxCell>
        <mxCell id="IJf_oxvMi_yI0q4zsniB-44" value="&lt;u&gt;Name&lt;/u&gt;" style="shape=partialRectangle;html=1;whiteSpace=wrap;connectable=0;fillColor=none;top=0;left=0;bottom=0;right=0;overflow=hidden;fontSize=12;strokeColor=inherit;" parent="IJf_oxvMi_yI0q4zsniB-42" vertex="1">
          <mxGeometry x="60" width="60" height="40" as="geometry">
            <mxRectangle width="60" height="40" as="alternateBounds" />
          </mxGeometry>
        </mxCell>
        <mxCell id="IuTOKo6c5WQzJCZQz2z7-27" value="DID" style="shape=partialRectangle;html=1;whiteSpace=wrap;connectable=0;fillColor=none;top=0;left=0;bottom=0;right=0;overflow=hidden;fontSize=12;strokeColor=inherit;" vertex="1" parent="IJf_oxvMi_yI0q4zsniB-42">
          <mxGeometry x="120" width="60" height="40" as="geometry">
            <mxRectangle width="60" height="40" as="alternateBounds" />
          </mxGeometry>
        </mxCell>
        <mxCell id="IuTOKo6c5WQzJCZQz2z7-28" value="" style="endArrow=classic;html=1;rounded=0;entryX=0.102;entryY=1.036;entryDx=0;entryDy=0;entryPerimeter=0;exitX=0.88;exitY=0.964;exitDx=0;exitDy=0;exitPerimeter=0;" edge="1" parent="IJf_oxvMi_yI0q4zsniB-41" source="IJf_oxvMi_yI0q4zsniB-42" target="IJf_oxvMi_yI0q4zsniB-42">
          <mxGeometry width="50" height="50" relative="1" as="geometry">
            <mxPoint x="134.19999999999987" y="60" as="sourcePoint" />
            <mxPoint x="10.000000000000057" y="62.83999999999992" as="targetPoint" />
            <Array as="points">
              <mxPoint x="150" y="110" />
            </Array>
          </mxGeometry>
        </mxCell>
        <mxCell id="IJf_oxvMi_yI0q4zsniB-60" value="Starships" style="text;strokeColor=none;fillColor=none;html=1;fontSize=24;fontStyle=1;verticalAlign=middle;align=center;" parent="WIyWlLk6GJQsqaUBKTNV-1" vertex="1">
          <mxGeometry x="140" y="580" width="100" height="40" as="geometry" />
        </mxCell>
        <mxCell id="IJf_oxvMi_yI0q4zsniB-61" value="" style="shape=table;html=1;whiteSpace=wrap;startSize=0;container=1;collapsible=0;childLayout=tableLayout;columnLines=0;rowLines=0;fontSize=16;strokeColor=default;" parent="WIyWlLk6GJQsqaUBKTNV-1" vertex="1">
          <mxGeometry x="140" y="620" width="921" height="40" as="geometry" />
        </mxCell>
        <mxCell id="IuTOKo6c5WQzJCZQz2z7-1" style="edgeStyle=orthogonalEdgeStyle;rounded=0;orthogonalLoop=1;jettySize=auto;html=1;exitX=1;exitY=0.5;exitDx=0;exitDy=0;" edge="1" parent="IJf_oxvMi_yI0q4zsniB-61" source="IJf_oxvMi_yI0q4zsniB-62" target="IJf_oxvMi_yI0q4zsniB-62">
          <mxGeometry relative="1" as="geometry" />
        </mxCell>
        <mxCell id="IJf_oxvMi_yI0q4zsniB-62" value="" style="shape=tableRow;horizontal=0;startSize=0;swimlaneHead=0;swimlaneBody=0;top=0;left=0;bottom=0;right=0;collapsible=0;dropTarget=0;fillColor=none;points=[[0,0.5],[1,0.5]];portConstraint=eastwest;fontSize=16;strokeColor=inherit;" parent="IJf_oxvMi_yI0q4zsniB-61" vertex="1">
          <mxGeometry width="921" height="40" as="geometry" />
        </mxCell>
        <mxCell id="IJf_oxvMi_yI0q4zsniB-63" value="&lt;u&gt;Name&lt;/u&gt;" style="shape=partialRectangle;html=1;whiteSpace=wrap;connectable=0;fillColor=none;top=0;left=0;bottom=0;right=0;overflow=hidden;fontSize=12;strokeColor=inherit;" parent="IJf_oxvMi_yI0q4zsniB-62" vertex="1">
          <mxGeometry width="56" height="40" as="geometry">
            <mxRectangle width="56" height="40" as="alternateBounds" />
          </mxGeometry>
        </mxCell>
        <mxCell id="IJf_oxvMi_yI0q4zsniB-64" value="&lt;u&gt;Serial_Number&lt;/u&gt;" style="shape=partialRectangle;html=1;whiteSpace=wrap;connectable=0;fillColor=none;top=0;left=0;bottom=0;right=0;overflow=hidden;fontSize=12;strokeColor=inherit;" parent="IJf_oxvMi_yI0q4zsniB-62" vertex="1">
          <mxGeometry x="56" width="114" height="40" as="geometry">
            <mxRectangle width="114" height="40" as="alternateBounds" />
          </mxGeometry>
        </mxCell>
        <mxCell id="IJf_oxvMi_yI0q4zsniB-65" value="Min_Crew" style="shape=partialRectangle;html=1;whiteSpace=wrap;connectable=0;fillColor=none;top=0;left=0;bottom=0;right=0;overflow=hidden;fontSize=12;strokeColor=inherit;" parent="IJf_oxvMi_yI0q4zsniB-62" vertex="1">
          <mxGeometry x="170" width="91" height="40" as="geometry">
            <mxRectangle width="91" height="40" as="alternateBounds" />
          </mxGeometry>
        </mxCell>
        <mxCell id="IJf_oxvMi_yI0q4zsniB-73" value="Max_Pass_Cap" style="shape=partialRectangle;html=1;whiteSpace=wrap;connectable=0;fillColor=none;top=0;left=0;bottom=0;right=0;overflow=hidden;fontSize=12;strokeColor=inherit;" parent="IJf_oxvMi_yI0q4zsniB-62" vertex="1">
          <mxGeometry x="261" width="119" height="40" as="geometry">
            <mxRectangle width="119" height="40" as="alternateBounds" />
          </mxGeometry>
        </mxCell>
        <mxCell id="IJf_oxvMi_yI0q4zsniB-74" value="Last_Service_Date" style="shape=partialRectangle;html=1;whiteSpace=wrap;connectable=0;fillColor=none;top=0;left=0;bottom=0;right=0;overflow=hidden;fontSize=12;strokeColor=inherit;" parent="IJf_oxvMi_yI0q4zsniB-62" vertex="1">
          <mxGeometry x="380" width="119" height="40" as="geometry">
            <mxRectangle width="119" height="40" as="alternateBounds" />
          </mxGeometry>
        </mxCell>
        <mxCell id="IJf_oxvMi_yI0q4zsniB-75" value="Next_Service_Date" style="shape=partialRectangle;html=1;whiteSpace=wrap;connectable=0;fillColor=none;top=0;left=0;bottom=0;right=0;overflow=hidden;fontSize=12;strokeColor=inherit;" parent="IJf_oxvMi_yI0q4zsniB-62" vertex="1">
          <mxGeometry x="499" width="211" height="40" as="geometry">
            <mxRectangle width="211" height="40" as="alternateBounds" />
          </mxGeometry>
        </mxCell>
        <mxCell id="IuTOKo6c5WQzJCZQz2z7-16" value="TID" style="shape=partialRectangle;html=1;whiteSpace=wrap;connectable=0;fillColor=none;top=0;left=0;bottom=0;right=0;overflow=hidden;fontSize=12;strokeColor=inherit;" vertex="1" parent="IJf_oxvMi_yI0q4zsniB-62">
          <mxGeometry x="710" width="211" height="40" as="geometry">
            <mxRectangle width="211" height="40" as="alternateBounds" />
          </mxGeometry>
        </mxCell>
        <mxCell id="IJf_oxvMi_yI0q4zsniB-80" value="Pilots" style="text;strokeColor=none;fillColor=none;html=1;fontSize=24;fontStyle=1;verticalAlign=middle;align=center;" parent="WIyWlLk6GJQsqaUBKTNV-1" vertex="1">
          <mxGeometry x="140" y="760" width="100" height="40" as="geometry" />
        </mxCell>
        <mxCell id="IJf_oxvMi_yI0q4zsniB-81" value="" style="shape=table;html=1;whiteSpace=wrap;startSize=0;container=1;collapsible=0;childLayout=tableLayout;columnLines=0;rowLines=0;fontSize=16;strokeColor=default;" parent="WIyWlLk6GJQsqaUBKTNV-1" vertex="1">
          <mxGeometry x="140" y="800" width="500" height="40" as="geometry" />
        </mxCell>
        <mxCell id="IJf_oxvMi_yI0q4zsniB-82" value="" style="shape=tableRow;horizontal=0;startSize=0;swimlaneHead=0;swimlaneBody=0;top=0;left=0;bottom=0;right=0;collapsible=0;dropTarget=0;fillColor=none;points=[[0,0.5],[1,0.5]];portConstraint=eastwest;fontSize=16;strokeColor=inherit;" parent="IJf_oxvMi_yI0q4zsniB-81" vertex="1">
          <mxGeometry width="500" height="40" as="geometry" />
        </mxCell>
        <mxCell id="IJf_oxvMi_yI0q4zsniB-83" value="&lt;u&gt;Name&lt;/u&gt;" style="shape=partialRectangle;html=1;whiteSpace=wrap;connectable=0;fillColor=none;top=0;left=0;bottom=0;right=0;overflow=hidden;fontSize=12;strokeColor=inherit;" parent="IJf_oxvMi_yI0q4zsniB-82" vertex="1">
          <mxGeometry width="56" height="40" as="geometry">
            <mxRectangle width="56" height="40" as="alternateBounds" />
          </mxGeometry>
        </mxCell>
        <mxCell id="IJf_oxvMi_yI0q4zsniB-84" value="&lt;u&gt;DOB&lt;/u&gt;" style="shape=partialRectangle;html=1;whiteSpace=wrap;connectable=0;fillColor=none;top=0;left=0;bottom=0;right=0;overflow=hidden;fontSize=12;strokeColor=inherit;" parent="IJf_oxvMi_yI0q4zsniB-82" vertex="1">
          <mxGeometry x="56" width="114" height="40" as="geometry">
            <mxRectangle width="114" height="40" as="alternateBounds" />
          </mxGeometry>
        </mxCell>
        <mxCell id="IJf_oxvMi_yI0q4zsniB-85" value="Flight_Count" style="shape=partialRectangle;html=1;whiteSpace=wrap;connectable=0;fillColor=none;top=0;left=0;bottom=0;right=0;overflow=hidden;fontSize=12;strokeColor=inherit;" parent="IJf_oxvMi_yI0q4zsniB-82" vertex="1">
          <mxGeometry x="170" width="90" height="40" as="geometry">
            <mxRectangle width="90" height="40" as="alternateBounds" />
          </mxGeometry>
        </mxCell>
        <mxCell id="IJf_oxvMi_yI0q4zsniB-86" value="Years_of_Service" style="shape=partialRectangle;html=1;whiteSpace=wrap;connectable=0;fillColor=none;top=0;left=0;bottom=0;right=0;overflow=hidden;fontSize=12;strokeColor=inherit;" parent="IJf_oxvMi_yI0q4zsniB-82" vertex="1">
          <mxGeometry x="260" width="120" height="40" as="geometry">
            <mxRectangle width="120" height="40" as="alternateBounds" />
          </mxGeometry>
        </mxCell>
        <mxCell id="IuTOKo6c5WQzJCZQz2z7-19" value="TID" style="shape=partialRectangle;html=1;whiteSpace=wrap;connectable=0;fillColor=none;top=0;left=0;bottom=0;right=0;overflow=hidden;fontSize=12;strokeColor=inherit;" vertex="1" parent="IJf_oxvMi_yI0q4zsniB-82">
          <mxGeometry x="380" width="120" height="40" as="geometry">
            <mxRectangle width="120" height="40" as="alternateBounds" />
          </mxGeometry>
        </mxCell>
        <mxCell id="IJf_oxvMi_yI0q4zsniB-89" value="Planets" style="text;strokeColor=none;fillColor=none;html=1;fontSize=24;fontStyle=1;verticalAlign=middle;align=center;" parent="WIyWlLk6GJQsqaUBKTNV-1" vertex="1">
          <mxGeometry x="140" y="920" width="100" height="40" as="geometry" />
        </mxCell>
        <mxCell id="IJf_oxvMi_yI0q4zsniB-90" value="" style="shape=table;html=1;whiteSpace=wrap;startSize=0;container=1;collapsible=0;childLayout=tableLayout;columnLines=0;rowLines=0;fontSize=16;strokeColor=default;" parent="WIyWlLk6GJQsqaUBKTNV-1" vertex="1">
          <mxGeometry x="140" y="960" width="470" height="40" as="geometry" />
        </mxCell>
        <mxCell id="IJf_oxvMi_yI0q4zsniB-91" value="" style="shape=tableRow;horizontal=0;startSize=0;swimlaneHead=0;swimlaneBody=0;top=0;left=0;bottom=0;right=0;collapsible=0;dropTarget=0;fillColor=none;points=[[0,0.5],[1,0.5]];portConstraint=eastwest;fontSize=16;strokeColor=inherit;" parent="IJf_oxvMi_yI0q4zsniB-90" vertex="1">
          <mxGeometry width="470" height="40" as="geometry" />
        </mxCell>
        <mxCell id="IJf_oxvMi_yI0q4zsniB-92" value="&lt;u&gt;Planet Name&lt;/u&gt;" style="shape=partialRectangle;html=1;whiteSpace=wrap;connectable=0;fillColor=none;top=0;left=0;bottom=0;right=0;overflow=hidden;fontSize=12;strokeColor=inherit;" parent="IJf_oxvMi_yI0q4zsniB-91" vertex="1">
          <mxGeometry width="110" height="40" as="geometry">
            <mxRectangle width="110" height="40" as="alternateBounds" />
          </mxGeometry>
        </mxCell>
        <mxCell id="IJf_oxvMi_yI0q4zsniB-93" value="&lt;u&gt;Starship Name&lt;/u&gt;" style="shape=partialRectangle;html=1;whiteSpace=wrap;connectable=0;fillColor=none;top=0;left=0;bottom=0;right=0;overflow=hidden;fontSize=12;strokeColor=inherit;" parent="IJf_oxvMi_yI0q4zsniB-91" vertex="1">
          <mxGeometry x="110" width="120" height="40" as="geometry">
            <mxRectangle width="120" height="40" as="alternateBounds" />
          </mxGeometry>
        </mxCell>
        <mxCell id="IJf_oxvMi_yI0q4zsniB-94" value="Climate_Type" style="shape=partialRectangle;html=1;whiteSpace=wrap;connectable=0;fillColor=none;top=0;left=0;bottom=0;right=0;overflow=hidden;fontSize=12;strokeColor=inherit;" parent="IJf_oxvMi_yI0q4zsniB-91" vertex="1">
          <mxGeometry x="230" width="120" height="40" as="geometry">
            <mxRectangle width="120" height="40" as="alternateBounds" />
          </mxGeometry>
        </mxCell>
        <mxCell id="IuTOKo6c5WQzJCZQz2z7-21" value="PID" style="shape=partialRectangle;html=1;whiteSpace=wrap;connectable=0;fillColor=none;top=0;left=0;bottom=0;right=0;overflow=hidden;fontSize=12;strokeColor=inherit;" vertex="1" parent="IJf_oxvMi_yI0q4zsniB-91">
          <mxGeometry x="350" width="120" height="40" as="geometry">
            <mxRectangle width="120" height="40" as="alternateBounds" />
          </mxGeometry>
        </mxCell>
        <mxCell id="IJf_oxvMi_yI0q4zsniB-96" value="Trip" style="text;strokeColor=none;fillColor=none;html=1;fontSize=24;fontStyle=1;verticalAlign=middle;align=center;" parent="WIyWlLk6GJQsqaUBKTNV-1" vertex="1">
          <mxGeometry x="140" y="1060" width="100" height="40" as="geometry" />
        </mxCell>
        <mxCell id="IJf_oxvMi_yI0q4zsniB-97" value="" style="shape=table;html=1;whiteSpace=wrap;startSize=0;container=1;collapsible=0;childLayout=tableLayout;columnLines=0;rowLines=0;fontSize=16;strokeColor=default;" parent="WIyWlLk6GJQsqaUBKTNV-1" vertex="1">
          <mxGeometry x="142" y="1100" width="470" height="40" as="geometry" />
        </mxCell>
        <mxCell id="IJf_oxvMi_yI0q4zsniB-98" value="" style="shape=tableRow;horizontal=0;startSize=0;swimlaneHead=0;swimlaneBody=0;top=0;left=0;bottom=0;right=0;collapsible=0;dropTarget=0;fillColor=none;points=[[0,0.5],[1,0.5]];portConstraint=eastwest;fontSize=16;strokeColor=inherit;" parent="IJf_oxvMi_yI0q4zsniB-97" vertex="1">
          <mxGeometry width="470" height="40" as="geometry" />
        </mxCell>
        <mxCell id="IJf_oxvMi_yI0q4zsniB-99" value="&lt;u&gt;ID&lt;/u&gt;" style="shape=partialRectangle;html=1;whiteSpace=wrap;connectable=0;fillColor=none;top=0;left=0;bottom=0;right=0;overflow=hidden;fontSize=12;strokeColor=inherit;" parent="IJf_oxvMi_yI0q4zsniB-98" vertex="1">
          <mxGeometry width="110" height="40" as="geometry">
            <mxRectangle width="110" height="40" as="alternateBounds" />
          </mxGeometry>
        </mxCell>
        <mxCell id="IJf_oxvMi_yI0q4zsniB-100" value="departure_date" style="shape=partialRectangle;html=1;whiteSpace=wrap;connectable=0;fillColor=none;top=0;left=0;bottom=0;right=0;overflow=hidden;fontSize=12;strokeColor=inherit;" parent="IJf_oxvMi_yI0q4zsniB-98" vertex="1">
          <mxGeometry x="110" width="120" height="40" as="geometry">
            <mxRectangle width="120" height="40" as="alternateBounds" />
          </mxGeometry>
        </mxCell>
        <mxCell id="IuTOKo6c5WQzJCZQz2z7-24" value="SFrom" style="shape=partialRectangle;html=1;whiteSpace=wrap;connectable=0;fillColor=none;top=0;left=0;bottom=0;right=0;overflow=hidden;fontSize=12;strokeColor=inherit;" vertex="1" parent="IJf_oxvMi_yI0q4zsniB-98">
          <mxGeometry x="230" width="120" height="40" as="geometry">
            <mxRectangle width="120" height="40" as="alternateBounds" />
          </mxGeometry>
        </mxCell>
        <mxCell id="IuTOKo6c5WQzJCZQz2z7-25" value="Endsat" style="shape=partialRectangle;html=1;whiteSpace=wrap;connectable=0;fillColor=none;top=0;left=0;bottom=0;right=0;overflow=hidden;fontSize=12;strokeColor=inherit;" vertex="1" parent="IJf_oxvMi_yI0q4zsniB-98">
          <mxGeometry x="350" width="120" height="40" as="geometry">
            <mxRectangle width="120" height="40" as="alternateBounds" />
          </mxGeometry>
        </mxCell>
        <mxCell id="IuTOKo6c5WQzJCZQz2z7-18" value="" style="endArrow=classic;html=1;rounded=0;exitX=0.912;exitY=1.179;exitDx=0;exitDy=0;exitPerimeter=0;entryX=0.144;entryY=1.036;entryDx=0;entryDy=0;entryPerimeter=0;" edge="1" parent="WIyWlLk6GJQsqaUBKTNV-1" source="IJf_oxvMi_yI0q4zsniB-62" target="IJf_oxvMi_yI0q4zsniB-98">
          <mxGeometry width="50" height="50" relative="1" as="geometry">
            <mxPoint x="580" y="950" as="sourcePoint" />
            <mxPoint x="190" y="1180" as="targetPoint" />
            <Array as="points">
              <mxPoint x="990" y="1200" />
              <mxPoint x="580" y="1200" />
              <mxPoint x="186" y="1200" />
            </Array>
          </mxGeometry>
        </mxCell>
        <mxCell id="IuTOKo6c5WQzJCZQz2z7-20" value="" style="endArrow=classic;html=1;rounded=0;entryX=0.184;entryY=1.036;entryDx=0;entryDy=0;entryPerimeter=0;exitX=0.911;exitY=1;exitDx=0;exitDy=0;exitPerimeter=0;" edge="1" parent="WIyWlLk6GJQsqaUBKTNV-1" source="IJf_oxvMi_yI0q4zsniB-82" target="IJf_oxvMi_yI0q4zsniB-98">
          <mxGeometry width="50" height="50" relative="1" as="geometry">
            <mxPoint x="580" y="1030" as="sourcePoint" />
            <mxPoint x="630" y="980" as="targetPoint" />
            <Array as="points">
              <mxPoint x="600" y="1150" />
              <mxPoint x="230" y="1200" />
            </Array>
          </mxGeometry>
        </mxCell>
        <mxCell id="IuTOKo6c5WQzJCZQz2z7-22" value="" style="endArrow=classic;html=1;rounded=0;entryX=0.083;entryY=0.964;entryDx=0;entryDy=0;entryPerimeter=0;exitX=0.924;exitY=0.964;exitDx=0;exitDy=0;exitPerimeter=0;" edge="1" parent="WIyWlLk6GJQsqaUBKTNV-1" source="IJf_oxvMi_yI0q4zsniB-91" target="IJf_oxvMi_yI0q4zsniB-82">
          <mxGeometry width="50" height="50" relative="1" as="geometry">
            <mxPoint x="580" y="1030" as="sourcePoint" />
            <mxPoint x="630" y="980" as="targetPoint" />
            <Array as="points">
              <mxPoint x="580" y="1030" />
              <mxPoint x="330" y="1030" />
              <mxPoint x="80" y="1020" />
            </Array>
          </mxGeometry>
        </mxCell>
        <mxCell id="IuTOKo6c5WQzJCZQz2z7-23" value="" style="endArrow=classic;html=1;rounded=0;exitX=0.643;exitY=0.964;exitDx=0;exitDy=0;exitPerimeter=0;" edge="1" parent="WIyWlLk6GJQsqaUBKTNV-1" source="IJf_oxvMi_yI0q4zsniB-98">
          <mxGeometry width="50" height="50" relative="1" as="geometry">
            <mxPoint x="120" y="1190" as="sourcePoint" />
            <mxPoint x="170" y="1140" as="targetPoint" />
            <Array as="points">
              <mxPoint x="420" y="1260" />
              <mxPoint x="160" y="1250" />
            </Array>
          </mxGeometry>
        </mxCell>
        <mxCell id="IuTOKo6c5WQzJCZQz2z7-26" value="" style="endArrow=classic;html=1;rounded=0;entryX=0.114;entryY=1.107;entryDx=0;entryDy=0;entryPerimeter=0;" edge="1" parent="WIyWlLk6GJQsqaUBKTNV-1" target="IJf_oxvMi_yI0q4zsniB-98">
          <mxGeometry width="50" height="50" relative="1" as="geometry">
            <mxPoint x="550" y="1145" as="sourcePoint" />
            <mxPoint x="600" y="1095" as="targetPoint" />
            <Array as="points">
              <mxPoint x="560" y="1270" />
              <mxPoint x="190" y="1280" />
            </Array>
          </mxGeometry>
        </mxCell>
        <mxCell id="IuTOKo6c5WQzJCZQz2z7-30" value="Participates_On" style="text;strokeColor=none;fillColor=none;html=1;fontSize=24;fontStyle=1;verticalAlign=middle;align=center;" vertex="1" parent="WIyWlLk6GJQsqaUBKTNV-1">
          <mxGeometry x="160" y="1320" width="100" height="40" as="geometry" />
        </mxCell>
        <mxCell id="IuTOKo6c5WQzJCZQz2z7-31" value="" style="shape=table;html=1;whiteSpace=wrap;startSize=0;container=1;collapsible=0;childLayout=tableLayout;columnLines=0;rowLines=0;fontSize=16;strokeColor=default;" vertex="1" parent="WIyWlLk6GJQsqaUBKTNV-1">
          <mxGeometry x="110" y="1370" width="230" height="40" as="geometry" />
        </mxCell>
        <mxCell id="IuTOKo6c5WQzJCZQz2z7-32" value="" style="shape=tableRow;horizontal=0;startSize=0;swimlaneHead=0;swimlaneBody=0;top=0;left=0;bottom=0;right=0;collapsible=0;dropTarget=0;fillColor=none;points=[[0,0.5],[1,0.5]];portConstraint=eastwest;fontSize=16;strokeColor=inherit;" vertex="1" parent="IuTOKo6c5WQzJCZQz2z7-31">
          <mxGeometry width="230" height="40" as="geometry" />
        </mxCell>
        <mxCell id="IuTOKo6c5WQzJCZQz2z7-33" value="&lt;u&gt;PID&lt;/u&gt;" style="shape=partialRectangle;html=1;whiteSpace=wrap;connectable=0;fillColor=none;top=0;left=0;bottom=0;right=0;overflow=hidden;fontSize=12;strokeColor=inherit;" vertex="1" parent="IuTOKo6c5WQzJCZQz2z7-32">
          <mxGeometry width="110" height="40" as="geometry">
            <mxRectangle width="110" height="40" as="alternateBounds" />
          </mxGeometry>
        </mxCell>
        <mxCell id="IuTOKo6c5WQzJCZQz2z7-34" value="&lt;u&gt;TID&lt;/u&gt;" style="shape=partialRectangle;html=1;whiteSpace=wrap;connectable=0;fillColor=none;top=0;left=0;bottom=0;right=0;overflow=hidden;fontSize=12;strokeColor=inherit;" vertex="1" parent="IuTOKo6c5WQzJCZQz2z7-32">
          <mxGeometry x="110" width="120" height="40" as="geometry">
            <mxRectangle width="120" height="40" as="alternateBounds" />
          </mxGeometry>
        </mxCell>
        <mxCell id="IuTOKo6c5WQzJCZQz2z7-37" value="" style="endArrow=classic;html=1;rounded=0;exitX=0.223;exitY=1.107;exitDx=0;exitDy=0;exitPerimeter=0;entryX=0.063;entryY=1.071;entryDx=0;entryDy=0;entryPerimeter=0;" edge="1" parent="WIyWlLk6GJQsqaUBKTNV-1">
          <mxGeometry width="50" height="50" relative="1" as="geometry">
            <mxPoint x="161.28999999999996" y="1411.4400000000003" as="sourcePoint" />
            <mxPoint x="151.34000000000015" y="499.99999999999994" as="targetPoint" />
            <Array as="points">
              <mxPoint x="140" y="1500" />
              <mxPoint x="10" y="1500" />
              <mxPoint y="1030" />
              <mxPoint x="40" y="580" />
              <mxPoint x="151" y="580" />
            </Array>
          </mxGeometry>
        </mxCell>
        <mxCell id="IuTOKo6c5WQzJCZQz2z7-38" value="" style="endArrow=classic;html=1;rounded=0;entryX=0.178;entryY=1.179;entryDx=0;entryDy=0;entryPerimeter=0;" edge="1" parent="WIyWlLk6GJQsqaUBKTNV-1" target="IJf_oxvMi_yI0q4zsniB-98">
          <mxGeometry width="50" height="50" relative="1" as="geometry">
            <mxPoint x="290" y="1410" as="sourcePoint" />
            <mxPoint x="340" y="1360" as="targetPoint" />
            <Array as="points">
              <mxPoint x="350" y="1450" />
              <mxPoint x="390" y="1310" />
            </Array>
          </mxGeometry>
        </mxCell>
      </root>
    </mxGraphModel>
  </diagram>
</mxfile>
